<svg xmlns="http://www.w3.org/2000/svg" viewBox="0 0 512 512" width="32" height="32">
    <rect width="512" height="512" fill="#1A535C" rx="60" />
    <path fill="#FFFFFF" d="M256 0c17.7 0 32 14.3 32 32V45.2c1.7 .2 3.3 .5 5 .9c11.6 2.6 22.1 7.9 30.8 15.6l14.8-14.8c12.5-12.5 32.8-12.5 45.3 0s12.5 32.8 0 45.3l-14.8 14.8c7.7 8.7 13 19.2 15.6 30.8c.4 1.7 .7 3.3 .9 5H480c17.7 0 32 14.3 32 32s-14.3 32-32 32H437.2c-.2 1.7-.5 3.3-.9 5c-2.6 11.6-7.9 22.1-15.6 30.8l14.8 14.8c12.5 12.5 12.5 32.8 0 45.3s-32.8 12.5-45.3 0l-14.8-14.8c-8.7 7.7-19.2 13-30.8 15.6c-1.7 .4-3.3 .7-5 .9V480c0 17.7-14.3 32-32 32s-32-14.3-32-32V466.8c-1.7-.2-3.3-.5-5-.9c-11.6-2.6-22.1-7.9-30.8-15.6l-14.8 14.8c-12.5 12.5-32.8 12.5-45.3 0s-12.5-32.8 0-45.3l14.8-14.8c-7.7-8.7-13-19.2-15.6-30.8c-.4-1.7-.7-3.3-.9-5H32c-17.7 0-32-14.3-32-32s14.3-32 32-32H74.8c.2-1.7 .5-3.3 .9-5c2.6-11.6 7.9-22.1 15.6-30.8L76.5 61.1c-12.5-12.5-12.5-32.8 0-45.3s32.8-12.5 45.3 0l14.8 14.8c8.7-7.7 19.2-13 30.8-15.6c1.7-.4 3.3-.7 5-.9V32c0-17.7 14.3-32 32-32zM128 256a128 128 0 1 0 256 0 128 128 0 1 0 -256 0zM80 256c0-35.3 28.7-64 64-64h16c17.7 0 32 14.3 32 32s-14.3 32-32 32H144c-8.8 0-16-7.2-16-16s7.2-16 16-16h32c8.8 0 16-7.2 16-16s-7.2-16-16-16H144c-35.3 0-64 28.7-64 64s28.7 64 64 64h16c17.7 0 32-14.3 32-32s-14.3-32-32-32H144c-8.8 0-16 7.2-16 16s7.2 16 16 16h32c8.8 0 16 7.2 16 16s-7.2 16-16 16H144c-35.3 0-64-28.7-64-64z"/>
</svg>